<svg width="200" height="200" viewBox="0 0 200 200" fill="none" xmlns="http://www.w3.org/2000/svg">
<path d="M100 80C126.51 80 148 101.49 148 128C148 144.38 139.793 158.84 127.27 167.502C132.71 161.195 136 152.982 136 144C136 124.118 119.882 108 100 108C80.1177 108 64 124.118 64 144C64 152.982 67.2896 161.195 72.7295 167.502C60.2062 158.84 52 144.38 52 128C52 101.49 73.4903 80 100 80ZM100 32C139.765 32 172 64.2355 172 104C172 127.504 160.737 148.377 143.314 161.518C153.649 150.739 160 136.112 160 120C160 86.8629 133.137 60 100 60C66.8629 60 40 86.8629 40 120C40 136.111 46.3506 150.739 56.6846 161.518C39.2624 148.377 28 127.504 28 104C28 64.2355 60.2355 32 100 32Z" fill="white"/>
</svg>
